<mxfile version="13.4.2" type="github" etag="lqDrtDiTcxuWi-_VbDqO" agent="5.0 (Windows NT 10.0; Win64; x64) AppleWebKit/537.36 (KHTML, like Gecko) Chrome/64.0.3282.140 Safari/537.36 Edge/18.17763" modified="2020-07-14T07:56:47.087Z" host="app.diagrams.net">
  <diagram id="K841JQn34HRRrsSOSrEb" name="Page-1">
    <mxGraphModel grid="1" shadow="0" math="0" pageHeight="1169" pageWidth="827" pageScale="1" page="1" fold="1" arrows="1" connect="1" tooltips="1" guides="1" gridSize="10" dy="514" dx="940">
      <root>
        <mxCell id="0" />
        <mxCell id="1" parent="0" />
        <mxCell id="llO0JlSiUA80strPoOcS-132" value="" parent="1" vertex="1" style="rounded=0;whiteSpace=wrap;html=1;strokeColor=#d6b656;fillColor=#FFFFFF;dashed=1;">
          <mxGeometry as="geometry" height="170" width="400" y="340" x="150" />
        </mxCell>
        <mxCell id="llO0JlSiUA80strPoOcS-97" value="" parent="1" vertex="1" style="rounded=0;whiteSpace=wrap;html=1;dashed=1;">
          <mxGeometry as="geometry" height="240" width="160" y="2630" x="620.13" />
        </mxCell>
        <mxCell id="llO0JlSiUA80strPoOcS-46" value="" parent="1" vertex="1" style="rounded=0;whiteSpace=wrap;html=1;dashed=1;">
          <mxGeometry as="geometry" height="110" width="150" y="3334" x="558.75" />
        </mxCell>
        <mxCell id="llO0JlSiUA80strPoOcS-28" value="" parent="1" vertex="1" style="rounded=0;whiteSpace=wrap;html=1;dashed=1;">
          <mxGeometry as="geometry" height="180" width="120" y="3094" x="211.75" />
        </mxCell>
        <mxCell id="vYmINC7X5dK-ffHIf7T--13" value="" parent="1" vertex="1" style="rounded=0;whiteSpace=wrap;html=1;dashed=1;">
          <mxGeometry as="geometry" height="220" width="160" y="1590" x="580" />
        </mxCell>
        <mxCell id="OwMu27jhyjzwBgv88Kzw-33" value="" parent="1" vertex="1" style="rounded=0;whiteSpace=wrap;html=1;dashed=1;">
          <mxGeometry as="geometry" height="100" width="304" y="1410" x="176" />
        </mxCell>
        <mxCell id="OwMu27jhyjzwBgv88Kzw-24" value="" parent="1" vertex="1" style="rounded=0;whiteSpace=wrap;html=1;dashed=1;">
          <mxGeometry as="geometry" height="160" width="355" y="1200" x="165" />
        </mxCell>
        <mxCell id="OwMu27jhyjzwBgv88Kzw-19" value="" parent="1" vertex="1" style="rounded=0;whiteSpace=wrap;html=1;dashed=1;">
          <mxGeometry as="geometry" height="260" width="500" y="770" x="110" />
        </mxCell>
        <mxCell id="8TcAFzx-M_xFQQ5Gom9a-20" value="" parent="1" vertex="1" style="rounded=0;whiteSpace=wrap;html=1;strokeColor=#666666;">
          <mxGeometry as="geometry" height="30" width="390" y="280" x="160" />
        </mxCell>
        <mxCell id="8TcAFzx-M_xFQQ5Gom9a-1" value="大前端(医院，药店，慢特病服务站)" parent="1" vertex="1" style="rounded=0;whiteSpace=wrap;html=1;fillColor=#d5e8d4;strokeColor=#82b366;">
          <mxGeometry as="geometry" height="30" width="390" y="80" x="160" />
        </mxCell>
        <mxCell id="8TcAFzx-M_xFQQ5Gom9a-2" value="" parent="1" vertex="1" style="rounded=0;whiteSpace=wrap;html=1;strokeColor=#00994D;">
          <mxGeometry as="geometry" height="30" width="390" y="110" x="160" />
        </mxCell>
        <mxCell id="8TcAFzx-M_xFQQ5Gom9a-3" value="web端" parent="1" vertex="1" style="rounded=0;whiteSpace=wrap;html=1;fillColor=#d5e8d4;strokeColor=#82b366;">
          <mxGeometry as="geometry" height="20" width="80" y="115" x="215" />
        </mxCell>
        <mxCell id="8TcAFzx-M_xFQQ5Gom9a-4" value="ios端" parent="1" vertex="1" style="rounded=0;whiteSpace=wrap;html=1;fillColor=#d5e8d4;strokeColor=#82b366;">
          <mxGeometry as="geometry" height="20" width="80" y="115" x="315" />
        </mxCell>
        <mxCell id="8TcAFzx-M_xFQQ5Gom9a-6" value="Android端" parent="1" vertex="1" style="rounded=0;whiteSpace=wrap;html=1;fillColor=#d5e8d4;strokeColor=#82b366;">
          <mxGeometry as="geometry" height="20" width="80" y="115" x="415" />
        </mxCell>
        <mxCell id="8TcAFzx-M_xFQQ5Gom9a-8" value="Nginx负载均衡层" parent="1" vertex="1" style="rounded=0;whiteSpace=wrap;html=1;fillColor=#bac8d3;strokeColor=#23445d;">
          <mxGeometry as="geometry" height="30" width="390" y="180" x="160" />
        </mxCell>
        <mxCell id="8TcAFzx-M_xFQQ5Gom9a-9" value="业务网关层" parent="1" vertex="1" style="rounded=0;whiteSpace=wrap;html=1;fillColor=#f5f5f5;strokeColor=#666666;fontColor=#333333;">
          <mxGeometry as="geometry" height="30" width="390" y="250" x="160" />
        </mxCell>
        <mxCell id="8TcAFzx-M_xFQQ5Gom9a-15" value="" parent="1" style="endArrow=classic;html=1;" edge="1">
          <mxGeometry as="geometry" height="50" width="50" relative="1">
            <mxPoint as="sourcePoint" y="142" x="357.17" />
            <mxPoint as="targetPoint" y="177.83333333333331" x="357.17" />
          </mxGeometry>
        </mxCell>
        <mxCell id="8TcAFzx-M_xFQQ5Gom9a-16" value="" parent="1" style="endArrow=classic;html=1;" edge="1">
          <mxGeometry as="geometry" height="50" width="50" relative="1">
            <mxPoint as="sourcePoint" y="214.16999999999996" x="359.16999999999996" />
            <mxPoint as="targetPoint" y="250.00333333333327" x="359.16999999999996" />
          </mxGeometry>
        </mxCell>
        <mxCell id="8TcAFzx-M_xFQQ5Gom9a-18" value="黑白名单" parent="1" vertex="1" style="rounded=0;whiteSpace=wrap;html=1;fillColor=#f5f5f5;strokeColor=#666666;fontColor=#333333;">
          <mxGeometry as="geometry" height="20" width="60" y="285" x="446.75" />
        </mxCell>
        <mxCell id="8TcAFzx-M_xFQQ5Gom9a-19" value="鉴权" parent="1" vertex="1" style="rounded=0;whiteSpace=wrap;html=1;fillColor=#f5f5f5;strokeColor=#666666;fontColor=#333333;">
          <mxGeometry as="geometry" height="20" width="60" y="285" x="205" />
        </mxCell>
        <mxCell id="8TcAFzx-M_xFQQ5Gom9a-21" value="防刷" parent="1" vertex="1" style="rounded=0;whiteSpace=wrap;html=1;fillColor=#f5f5f5;strokeColor=#666666;fontColor=#333333;">
          <mxGeometry as="geometry" height="20" width="60" y="285" x="368.5" />
        </mxCell>
        <mxCell id="8TcAFzx-M_xFQQ5Gom9a-22" value="数据解密" parent="1" vertex="1" style="rounded=0;whiteSpace=wrap;html=1;fillColor=#f5f5f5;strokeColor=#666666;fontColor=#333333;">
          <mxGeometry as="geometry" height="20" width="60" y="285" x="285" />
        </mxCell>
        <mxCell id="8TcAFzx-M_xFQQ5Gom9a-24" value="核心业务层" parent="1" vertex="1" style="rounded=0;whiteSpace=wrap;html=1;fillColor=#fff2cc;strokeColor=#d6b656;">
          <mxGeometry as="geometry" height="30" width="380" y="349" x="160" />
        </mxCell>
        <mxCell id="8TcAFzx-M_xFQQ5Gom9a-25" value="数据存储层" parent="1" vertex="1" style="rounded=0;whiteSpace=wrap;html=1;fillColor=#e1d5e7;strokeColor=#9673a6;">
          <mxGeometry as="geometry" height="30" width="390" y="545.83" x="160.75" />
        </mxCell>
        <mxCell id="8TcAFzx-M_xFQQ5Gom9a-26" value="" parent="1" vertex="1" style="rounded=0;whiteSpace=wrap;html=1;strokeColor=#FFCC99;">
          <mxGeometry as="geometry" height="70" width="380" y="379" x="160" />
        </mxCell>
        <mxCell id="8TcAFzx-M_xFQQ5Gom9a-27" value="&lt;p class=&quot;MsoNormal&quot;&gt;&lt;font face=&quot;等线&quot; style=&quot;font-size: 12px&quot;&gt;处方上传&lt;/font&gt;&lt;/p&gt;" parent="1" vertex="1" style="rounded=0;whiteSpace=wrap;html=1;fillColor=#fff2cc;strokeColor=#d6b656;">
          <mxGeometry as="geometry" height="20" width="65" y="389" x="201.63" />
        </mxCell>
        <mxCell id="8TcAFzx-M_xFQQ5Gom9a-28" value="&lt;p class=&quot;MsoNormal&quot;&gt;&lt;font face=&quot;等线&quot; style=&quot;font-size: 12px&quot;&gt;处方查询&lt;/font&gt;&lt;/p&gt;" parent="1" vertex="1" style="rounded=0;whiteSpace=wrap;html=1;fillColor=#fff2cc;strokeColor=#d6b656;">
          <mxGeometry as="geometry" height="20" width="65" y="389" x="276.63" />
        </mxCell>
        <mxCell id="8TcAFzx-M_xFQQ5Gom9a-29" value="&lt;p class=&quot;MsoNormal&quot;&gt;&lt;font face=&quot;等线&quot; style=&quot;font-size: 12px&quot;&gt;处方废弃&lt;/font&gt;&lt;/p&gt;" parent="1" vertex="1" style="rounded=0;whiteSpace=wrap;html=1;fillColor=#fff2cc;strokeColor=#d6b656;">
          <mxGeometry as="geometry" height="20" width="65" y="389" x="351.75" />
        </mxCell>
        <mxCell id="8TcAFzx-M_xFQQ5Gom9a-30" value="&lt;p class=&quot;MsoNormal&quot;&gt;&lt;font face=&quot;等线&quot; style=&quot;font-size: 12px&quot;&gt;缴费信息上传&lt;/font&gt;&lt;/p&gt;" parent="1" vertex="1" style="rounded=0;whiteSpace=wrap;html=1;fillColor=#fff2cc;strokeColor=#d6b656;">
          <mxGeometry as="geometry" height="20" width="80" y="389" x="428.38" />
        </mxCell>
        <mxCell id="8TcAFzx-M_xFQQ5Gom9a-31" value="&lt;p class=&quot;MsoNormal&quot;&gt;&lt;font face=&quot;等线&quot; style=&quot;font-size: 12px&quot;&gt;权限系统&lt;/font&gt;&lt;/p&gt;" parent="1" vertex="1" style="rounded=0;whiteSpace=wrap;html=1;fillColor=#fff2cc;strokeColor=#d6b656;">
          <mxGeometry as="geometry" height="20" width="80" y="418" x="220.5" />
        </mxCell>
        <mxCell id="8TcAFzx-M_xFQQ5Gom9a-32" value="&lt;p class=&quot;MsoNormal&quot;&gt;&lt;font face=&quot;等线&quot; style=&quot;font-size: 12px&quot;&gt;SSO单点登录&lt;/font&gt;&lt;/p&gt;" parent="1" vertex="1" style="rounded=0;whiteSpace=wrap;html=1;fillColor=#fff2cc;strokeColor=#d6b656;">
          <mxGeometry as="geometry" height="20" width="80" y="418" x="314.62" />
        </mxCell>
        <mxCell id="8TcAFzx-M_xFQQ5Gom9a-33" value="&lt;p class=&quot;MsoNormal&quot;&gt;&lt;font face=&quot;等线&quot; style=&quot;font-size: 12px&quot;&gt;数据可视化报表&lt;/font&gt;&lt;/p&gt;" parent="1" vertex="1" style="rounded=0;whiteSpace=wrap;html=1;fillColor=#fff2cc;strokeColor=#d6b656;">
          <mxGeometry as="geometry" height="20" width="90" y="418" x="409.5" />
        </mxCell>
        <mxCell id="8TcAFzx-M_xFQQ5Gom9a-37" value="" parent="1" style="endArrow=classic;html=1;" edge="1">
          <mxGeometry as="geometry" height="50" width="50" relative="1">
            <mxPoint as="sourcePoint" y="309.99999999999994" x="359.17" />
            <mxPoint as="targetPoint" y="345.8333333333333" x="359.17" />
          </mxGeometry>
        </mxCell>
        <mxCell id="8TcAFzx-M_xFQQ5Gom9a-40" value="" parent="1" vertex="1" style="rounded=0;whiteSpace=wrap;html=1;strokeColor=#666666;">
          <mxGeometry as="geometry" height="31" width="390" y="575.83" x="160.75" />
        </mxCell>
        <mxCell id="8TcAFzx-M_xFQQ5Gom9a-48" value="监控&amp;nbsp; /&amp;nbsp; 运维" parent="1" vertex="1" style="rounded=0;whiteSpace=wrap;html=1;strokeColor=#B09500;fillColor=#e3c800;">
          <mxGeometry as="geometry" height="30" width="390" y="646.83" x="160.75" />
        </mxCell>
        <mxCell id="8TcAFzx-M_xFQQ5Gom9a-49" value="" parent="1" vertex="1" style="rounded=0;whiteSpace=wrap;html=1;fontColor=#000000;strokeColor=#FFFF00;">
          <mxGeometry as="geometry" height="30" width="390" y="676.83" x="160.75" />
        </mxCell>
        <mxCell id="8TcAFzx-M_xFQQ5Gom9a-50" value="&lt;p class=&quot;MsoNormal&quot;&gt;&lt;font color=&quot;#333333&quot; face=&quot;等线&quot;&gt;软硬件监控&lt;/font&gt;&lt;/p&gt;" parent="1" vertex="1" style="rounded=0;whiteSpace=wrap;html=1;fillColor=#e3c800;strokeColor=#B09500;fontColor=#ffffff;">
          <mxGeometry as="geometry" height="20" width="64.25" y="681.83" x="194.12" />
        </mxCell>
        <mxCell id="8TcAFzx-M_xFQQ5Gom9a-52" value="&lt;p class=&quot;MsoNormal&quot;&gt;&lt;font face=&quot;等线&quot; color=&quot;#000000&quot;&gt;容器化部署&lt;/font&gt;&lt;/p&gt;" parent="1" vertex="1" style="rounded=0;whiteSpace=wrap;html=1;fillColor=#e3c800;strokeColor=#B09500;fontColor=#ffffff;">
          <mxGeometry as="geometry" height="20" width="69.25" y="681.83" x="281.62" />
        </mxCell>
        <mxCell id="8TcAFzx-M_xFQQ5Gom9a-53" value="&lt;p class=&quot;MsoNormal&quot;&gt;&lt;font color=&quot;#000000&quot; face=&quot;等线&quot;&gt;警告机制&lt;/font&gt;&lt;/p&gt;" parent="1" vertex="1" style="rounded=0;whiteSpace=wrap;html=1;fillColor=#e3c800;strokeColor=#B09500;fontColor=#ffffff;">
          <mxGeometry as="geometry" height="20" width="65.75" y="681.83" x="461.62" />
        </mxCell>
        <mxCell id="8TcAFzx-M_xFQQ5Gom9a-54" value="" parent="1" style="endArrow=classic;html=1;" edge="1">
          <mxGeometry as="geometry" height="50" width="50" relative="1">
            <mxPoint as="sourcePoint" y="646" x="360.75" />
            <mxPoint as="targetPoint" y="606.8333333333333" x="361" />
          </mxGeometry>
        </mxCell>
        <mxCell id="OwMu27jhyjzwBgv88Kzw-2" value="分布式消息系统" parent="1" vertex="1" style="rounded=0;whiteSpace=wrap;html=1;fillColor=#e51400;strokeColor=#B20000;fontColor=#ffffff;">
          <mxGeometry as="geometry" height="40" width="90" y="880" x="310" />
        </mxCell>
        <mxCell id="OwMu27jhyjzwBgv88Kzw-3" value="医生提交患者处方信息" parent="1" vertex="1" style="rounded=0;whiteSpace=wrap;html=1;">
          <mxGeometry as="geometry" height="40" width="80" y="800" x="160" />
        </mxCell>
        <mxCell id="OwMu27jhyjzwBgv88Kzw-6" value="请求到达核心业务层" parent="1" vertex="1" style="rounded=0;whiteSpace=wrap;html=1;">
          <mxGeometry as="geometry" height="40" width="80" y="880" x="160" />
        </mxCell>
        <mxCell id="OwMu27jhyjzwBgv88Kzw-7" value="" parent="1" style="endArrow=classic;html=1;exitX=1;exitY=0.5;exitDx=0;exitDy=0;" edge="1" source="OwMu27jhyjzwBgv88Kzw-6">
          <mxGeometry as="geometry" height="50" width="50" relative="1">
            <mxPoint as="sourcePoint" y="980" x="290" />
            <mxPoint as="targetPoint" y="900" x="310" />
          </mxGeometry>
        </mxCell>
        <mxCell id="OwMu27jhyjzwBgv88Kzw-8" value="" parent="1" style="endArrow=classic;html=1;exitX=0.5;exitY=1;exitDx=0;exitDy=0;entryX=0.5;entryY=0;entryDx=0;entryDy=0;" edge="1">
          <mxGeometry as="geometry" height="50" width="50" relative="1">
            <mxPoint as="sourcePoint" y="840" x="202.5" />
            <mxPoint as="targetPoint" y="880" x="202.5" />
          </mxGeometry>
        </mxCell>
        <mxCell id="OwMu27jhyjzwBgv88Kzw-9" value="消费处方信息" parent="1" vertex="1" style="rounded=0;whiteSpace=wrap;html=1;">
          <mxGeometry as="geometry" height="40" width="80" y="880" x="470.75" />
        </mxCell>
        <mxCell id="OwMu27jhyjzwBgv88Kzw-10" value="" parent="1" style="endArrow=classic;html=1;entryX=1;entryY=0.5;entryDx=0;entryDy=0;exitX=0;exitY=0.5;exitDx=0;exitDy=0;" edge="1" source="OwMu27jhyjzwBgv88Kzw-9" target="OwMu27jhyjzwBgv88Kzw-2">
          <mxGeometry as="geometry" height="50" width="50" relative="1">
            <mxPoint as="sourcePoint" y="990" x="430" />
            <mxPoint as="targetPoint" y="940" x="480" />
          </mxGeometry>
        </mxCell>
        <mxCell id="OwMu27jhyjzwBgv88Kzw-11" value="&lt;font color=&quot;#ff3333&quot;&gt;push&lt;/font&gt;" parent="1" vertex="1" style="text;html=1;strokeColor=none;fillColor=none;align=center;verticalAlign=middle;whiteSpace=wrap;rounded=0;">
          <mxGeometry as="geometry" height="20" width="40" y="880" x="255" />
        </mxCell>
        <mxCell id="OwMu27jhyjzwBgv88Kzw-12" value="&lt;font color=&quot;#ff0000&quot;&gt;pull&lt;/font&gt;" parent="1" vertex="1" style="text;html=1;strokeColor=none;fillColor=none;align=center;verticalAlign=middle;whiteSpace=wrap;rounded=0;">
          <mxGeometry as="geometry" height="20" width="40" y="880" x="416.75" />
        </mxCell>
        <mxCell id="OwMu27jhyjzwBgv88Kzw-13" value="存储层" parent="1" vertex="1" style="rounded=0;whiteSpace=wrap;html=1;">
          <mxGeometry as="geometry" height="40" width="85" y="960" x="468.25" />
        </mxCell>
        <mxCell id="OwMu27jhyjzwBgv88Kzw-18" value="" parent="1" style="endArrow=classic;html=1;exitX=0.5;exitY=1;exitDx=0;exitDy=0;entryX=0.5;entryY=0;entryDx=0;entryDy=0;" edge="1">
          <mxGeometry as="geometry" height="50" width="50" relative="1">
            <mxPoint as="sourcePoint" y="920" x="506.75" />
            <mxPoint as="targetPoint" y="960" x="506.75" />
          </mxGeometry>
        </mxCell>
        <mxCell id="OwMu27jhyjzwBgv88Kzw-20" value="功能测试" parent="1" vertex="1" style="rounded=0;whiteSpace=wrap;html=1;">
          <mxGeometry as="geometry" height="40" width="80" y="1220" x="370" />
        </mxCell>
        <mxCell id="OwMu27jhyjzwBgv88Kzw-21" value="性能测试" parent="1" vertex="1" style="rounded=0;whiteSpace=wrap;html=1;fillColor=#e51400;strokeColor=#B20000;fontColor=#ffffff;">
          <mxGeometry as="geometry" height="40" width="80" y="1300" x="370" />
        </mxCell>
        <mxCell id="OwMu27jhyjzwBgv88Kzw-22" value="" parent="1" style="endArrow=classic;startArrow=classic;html=1;entryX=0;entryY=0.5;entryDx=0;entryDy=0;exitX=0;exitY=0.5;exitDx=0;exitDy=0;" edge="1" source="OwMu27jhyjzwBgv88Kzw-21" target="OwMu27jhyjzwBgv88Kzw-20">
          <mxGeometry as="geometry" height="50" width="50" relative="1">
            <mxPoint as="sourcePoint" y="1300" x="280" />
            <mxPoint as="targetPoint" y="1250" x="330" />
            <Array as="points">
              <mxPoint y="1280" x="270" />
            </Array>
          </mxGeometry>
        </mxCell>
        <mxCell id="OwMu27jhyjzwBgv88Kzw-23" value="测试阶段" parent="1" vertex="1" style="text;html=1;strokeColor=none;fillColor=none;align=center;verticalAlign=middle;whiteSpace=wrap;rounded=0;dashed=1;">
          <mxGeometry as="geometry" height="20" width="56" y="1270" x="210" />
        </mxCell>
        <mxCell id="OwMu27jhyjzwBgv88Kzw-26" value="&lt;font color=&quot;#ff0000&quot;&gt;&amp;nbsp;可用性&lt;/font&gt;" parent="1" vertex="1" style="text;html=1;strokeColor=none;fillColor=none;align=center;verticalAlign=middle;whiteSpace=wrap;rounded=0;dashed=1;">
          <mxGeometry as="geometry" height="20" width="66.75" y="1450" x="188.25" />
        </mxCell>
        <mxCell id="OwMu27jhyjzwBgv88Kzw-27" value="=" parent="1" vertex="1" style="text;html=1;strokeColor=none;fillColor=none;align=center;verticalAlign=middle;whiteSpace=wrap;rounded=0;dashed=1;">
          <mxGeometry as="geometry" height="20" width="25" y="1450" x="245" />
        </mxCell>
        <mxCell id="OwMu27jhyjzwBgv88Kzw-28" value="平稳运行时间" parent="1" vertex="1" style="text;html=1;strokeColor=none;fillColor=none;align=center;verticalAlign=middle;whiteSpace=wrap;rounded=0;dashed=1;">
          <mxGeometry as="geometry" height="20" width="120" y="1430" x="310" />
        </mxCell>
        <mxCell id="OwMu27jhyjzwBgv88Kzw-29" value="" parent="1" style="endArrow=none;html=1;" edge="1">
          <mxGeometry as="geometry" height="50" width="50" relative="1">
            <mxPoint as="sourcePoint" y="1460" x="280" />
            <mxPoint as="targetPoint" y="1460" x="450" />
          </mxGeometry>
        </mxCell>
        <mxCell id="OwMu27jhyjzwBgv88Kzw-30" value="平稳运行时间" parent="1" vertex="1" style="text;html=1;strokeColor=none;fillColor=none;align=center;verticalAlign=middle;whiteSpace=wrap;rounded=0;dashed=1;">
          <mxGeometry as="geometry" height="20" width="120" y="1470" x="255" />
        </mxCell>
        <mxCell id="OwMu27jhyjzwBgv88Kzw-31" value="+" parent="1" vertex="1" style="text;html=1;strokeColor=none;fillColor=none;align=center;verticalAlign=middle;whiteSpace=wrap;rounded=0;dashed=1;">
          <mxGeometry as="geometry" height="20" width="20" y="1470" x="360" />
        </mxCell>
        <mxCell id="OwMu27jhyjzwBgv88Kzw-32" value="故障修复时间" parent="1" vertex="1" style="text;html=1;strokeColor=none;fillColor=none;align=center;verticalAlign=middle;whiteSpace=wrap;rounded=0;dashed=1;">
          <mxGeometry as="geometry" height="20" width="120" y="1470" x="360" />
        </mxCell>
        <mxCell id="vYmINC7X5dK-ffHIf7T--1" value="Zookeeper集群" parent="1" vertex="1" style="rounded=0;whiteSpace=wrap;html=1;">
          <mxGeometry as="geometry" height="40" width="120" y="1560" x="280" />
        </mxCell>
        <mxCell id="vYmINC7X5dK-ffHIf7T--2" value="服务消费者" parent="1" vertex="1" style="rounded=0;whiteSpace=wrap;html=1;">
          <mxGeometry as="geometry" height="40" width="120" y="1680" x="160" />
        </mxCell>
        <mxCell id="vYmINC7X5dK-ffHIf7T--3" value="服务提供者" parent="1" vertex="1" style="rounded=0;whiteSpace=wrap;html=1;">
          <mxGeometry as="geometry" height="40" width="125" y="1680" x="400" />
        </mxCell>
        <mxCell id="vYmINC7X5dK-ffHIf7T--4" value="" parent="1" style="endArrow=classic;html=1;entryX=0.5;entryY=1;entryDx=0;entryDy=0;exitX=0.5;exitY=0;exitDx=0;exitDy=0;" edge="1" source="vYmINC7X5dK-ffHIf7T--3" target="vYmINC7X5dK-ffHIf7T--1">
          <mxGeometry as="geometry" height="50" width="50" relative="1">
            <mxPoint as="sourcePoint" y="1820" x="500" />
            <mxPoint as="targetPoint" y="1770" x="550" />
          </mxGeometry>
        </mxCell>
        <mxCell id="vYmINC7X5dK-ffHIf7T--6" value="微服务 A&lt;br&gt;102.168.1.101:8090" parent="1" vertex="1" style="rounded=0;whiteSpace=wrap;html=1;fillColor=#fad9d5;strokeColor=#ae4132;">
          <mxGeometry as="geometry" height="40" width="120" y="1600" x="600" />
        </mxCell>
        <mxCell id="vYmINC7X5dK-ffHIf7T--7" value="微服务 A&lt;br&gt;102.168.1.102:8090" parent="1" vertex="1" style="rounded=0;whiteSpace=wrap;html=1;fillColor=#fad9d5;strokeColor=#ae4132;">
          <mxGeometry as="geometry" height="40" width="120" y="1680" x="600" />
        </mxCell>
        <mxCell id="vYmINC7X5dK-ffHIf7T--8" value="微服务 A&lt;br&gt;102.168.1.103:8090" parent="1" vertex="1" style="rounded=0;whiteSpace=wrap;html=1;fillColor=#fad9d5;strokeColor=#ae4132;">
          <mxGeometry as="geometry" height="40" width="120" y="1760" x="600" />
        </mxCell>
        <mxCell id="vYmINC7X5dK-ffHIf7T--9" value="" parent="1" style="endArrow=classic;html=1;entryX=0;entryY=0.5;entryDx=0;entryDy=0;exitX=1;exitY=0.5;exitDx=0;exitDy=0;" edge="1" source="vYmINC7X5dK-ffHIf7T--2" target="vYmINC7X5dK-ffHIf7T--3">
          <mxGeometry as="geometry" height="50" width="50" relative="1">
            <mxPoint as="sourcePoint" y="1740" x="290" />
            <mxPoint as="targetPoint" y="1690" x="340" />
          </mxGeometry>
        </mxCell>
        <mxCell id="vYmINC7X5dK-ffHIf7T--10" value="" parent="1" style="endArrow=classic;html=1;exitX=0;exitY=0.5;exitDx=0;exitDy=0;dashed=1;" edge="1" source="vYmINC7X5dK-ffHIf7T--6">
          <mxGeometry as="geometry" height="50" width="50" relative="1">
            <mxPoint as="sourcePoint" y="1790" x="540" />
            <mxPoint as="targetPoint" y="1690" x="530" />
          </mxGeometry>
        </mxCell>
        <mxCell id="vYmINC7X5dK-ffHIf7T--11" value="" parent="1" style="endArrow=classic;html=1;exitX=0;exitY=0.5;exitDx=0;exitDy=0;dashed=1;" edge="1">
          <mxGeometry as="geometry" height="50" width="50" relative="1">
            <mxPoint as="sourcePoint" y="1700" x="600" />
            <mxPoint as="targetPoint" y="1700" x="525" />
          </mxGeometry>
        </mxCell>
        <mxCell id="vYmINC7X5dK-ffHIf7T--12" value="" parent="1" style="endArrow=classic;html=1;exitX=0;exitY=0.5;exitDx=0;exitDy=0;dashed=1;" edge="1" source="vYmINC7X5dK-ffHIf7T--8">
          <mxGeometry as="geometry" height="50" width="50" relative="1">
            <mxPoint as="sourcePoint" y="1754" x="581.75" />
            <mxPoint as="targetPoint" y="1710" x="530" />
          </mxGeometry>
        </mxCell>
        <mxCell id="vYmINC7X5dK-ffHIf7T--14" value="" parent="1" style="endArrow=classic;html=1;entryX=0.5;entryY=0;entryDx=0;entryDy=0;" edge="1" target="vYmINC7X5dK-ffHIf7T--2">
          <mxGeometry as="geometry" height="50" width="50" relative="1">
            <mxPoint as="sourcePoint" y="1600" x="340" />
            <mxPoint as="targetPoint" y="1810" x="420" />
          </mxGeometry>
        </mxCell>
        <mxCell id="vYmINC7X5dK-ffHIf7T--15" value="&lt;font color=&quot;#ff3333&quot;&gt;微服务A搭建集群&lt;br&gt;统一对外提供服务&lt;/font&gt;" parent="1" vertex="1" style="text;html=1;strokeColor=none;fillColor=none;align=center;verticalAlign=middle;whiteSpace=wrap;rounded=0;dashed=1;">
          <mxGeometry as="geometry" height="20" width="120" y="1820" x="600" />
        </mxCell>
        <mxCell id="vYmINC7X5dK-ffHIf7T--16" value="注册" parent="1" vertex="1" style="text;html=1;strokeColor=none;fillColor=none;align=center;verticalAlign=middle;whiteSpace=wrap;rounded=0;">
          <mxGeometry as="geometry" height="20" width="40" y="1630" x="400" />
        </mxCell>
        <mxCell id="vYmINC7X5dK-ffHIf7T--17" value="订阅" parent="1" vertex="1" style="text;html=1;strokeColor=none;fillColor=none;align=center;verticalAlign=middle;whiteSpace=wrap;rounded=0;">
          <mxGeometry as="geometry" height="20" width="40" y="1630" x="218" />
        </mxCell>
        <mxCell id="vYmINC7X5dK-ffHIf7T--18" value="dubbo&lt;br&gt;远程调用" parent="1" vertex="1" style="text;html=1;strokeColor=none;fillColor=none;align=center;verticalAlign=middle;whiteSpace=wrap;rounded=0;">
          <mxGeometry as="geometry" height="20" width="55" y="1670" x="315" />
        </mxCell>
        <mxCell id="dd-nPzwq3zdHLR0h9W44-2" value="开始" parent="1" vertex="1" style="ellipse;whiteSpace=wrap;html=1;aspect=fixed;">
          <mxGeometry as="geometry" height="40" width="40" y="2443" x="120" />
        </mxCell>
        <mxCell id="dd-nPzwq3zdHLR0h9W44-3" value="1、随机生成16位字符串当做&lt;font color=&quot;#ff3333&quot;&gt;AES秘钥&lt;/font&gt;" parent="1" vertex="1" style="rounded=0;whiteSpace=wrap;html=1;">
          <mxGeometry as="geometry" height="40" width="120" y="2640" x="240" />
        </mxCell>
        <mxCell id="dd-nPzwq3zdHLR0h9W44-4" value="接口请求参数封装成json字符串" parent="1" vertex="1" style="rounded=0;whiteSpace=wrap;html=1;">
          <mxGeometry as="geometry" height="40" width="120" y="2603" x="80" />
        </mxCell>
        <mxCell id="dd-nPzwq3zdHLR0h9W44-5" value="使用AES秘钥对请求参数进行整体加密得到&lt;font color=&quot;#ff3333&quot;&gt;content&lt;/font&gt;" parent="1" vertex="1" style="rounded=0;whiteSpace=wrap;html=1;">
          <mxGeometry as="geometry" height="40" width="120" y="2683" x="80" />
        </mxCell>
        <mxCell id="dd-nPzwq3zdHLR0h9W44-6" value="使用&lt;font color=&quot;#ff3333&quot;&gt;RAS公钥&lt;/font&gt;对AES米秘钥进行加密得到一个&lt;font color=&quot;#ff3333&quot;&gt;key&lt;/font&gt;" parent="1" vertex="1" style="rounded=0;whiteSpace=wrap;html=1;">
          <mxGeometry as="geometry" height="40" width="120" y="2763" x="80" />
        </mxCell>
        <mxCell id="dd-nPzwq3zdHLR0h9W44-7" value="&amp;nbsp;把请求报文content和key传递到服务端" parent="1" vertex="1" style="rounded=0;whiteSpace=wrap;html=1;">
          <mxGeometry as="geometry" height="40" width="120" y="2843" x="80" />
        </mxCell>
        <mxCell id="dd-nPzwq3zdHLR0h9W44-10" value="" parent="1" style="endArrow=classic;html=1;exitX=0.5;exitY=1;exitDx=0;exitDy=0;entryX=0.5;entryY=0;entryDx=0;entryDy=0;" edge="1">
          <mxGeometry as="geometry" height="50" width="50" relative="1">
            <mxPoint as="sourcePoint" y="2563" x="139.5" />
            <mxPoint as="targetPoint" y="2603" x="139.5" />
          </mxGeometry>
        </mxCell>
        <mxCell id="dd-nPzwq3zdHLR0h9W44-11" value="" parent="1" style="endArrow=classic;html=1;exitX=0.5;exitY=1;exitDx=0;exitDy=0;entryX=0.5;entryY=0;entryDx=0;entryDy=0;" edge="1">
          <mxGeometry as="geometry" height="50" width="50" relative="1">
            <mxPoint as="sourcePoint" y="2643" x="139.5" />
            <mxPoint as="targetPoint" y="2683" x="139.5" />
          </mxGeometry>
        </mxCell>
        <mxCell id="dd-nPzwq3zdHLR0h9W44-12" value="" parent="1" style="endArrow=classic;html=1;exitX=0.5;exitY=1;exitDx=0;exitDy=0;entryX=0.5;entryY=0;entryDx=0;entryDy=0;" edge="1">
          <mxGeometry as="geometry" height="50" width="50" relative="1">
            <mxPoint as="sourcePoint" y="2723" x="139.5" />
            <mxPoint as="targetPoint" y="2763" x="139.5" />
          </mxGeometry>
        </mxCell>
        <mxCell id="dd-nPzwq3zdHLR0h9W44-13" value="" parent="1" style="endArrow=classic;html=1;exitX=0.5;exitY=1;exitDx=0;exitDy=0;entryX=0.5;entryY=0;entryDx=0;entryDy=0;" edge="1">
          <mxGeometry as="geometry" height="50" width="50" relative="1">
            <mxPoint as="sourcePoint" y="2803" x="139.5" />
            <mxPoint as="targetPoint" y="2843" x="139.5" />
          </mxGeometry>
        </mxCell>
        <mxCell id="dd-nPzwq3zdHLR0h9W44-14" value="" parent="1" style="endArrow=classic;html=1;exitX=0.5;exitY=1;exitDx=0;exitDy=0;entryX=0.5;entryY=0;entryDx=0;entryDy=0;" edge="1">
          <mxGeometry as="geometry" height="50" width="50" relative="1">
            <mxPoint as="sourcePoint" y="2883" x="139.5" />
            <mxPoint as="targetPoint" y="2923" x="139.5" />
          </mxGeometry>
        </mxCell>
        <mxCell id="dd-nPzwq3zdHLR0h9W44-15" value="&lt;p class=&quot;MsoNormal&quot;&gt;&lt;font face=&quot;等线&quot; color=&quot;#000000&quot;&gt;灰度发布&lt;/font&gt;&lt;/p&gt;" parent="1" vertex="1" style="rounded=0;whiteSpace=wrap;html=1;fillColor=#e3c800;strokeColor=#B09500;fontColor=#ffffff;">
          <mxGeometry as="geometry" height="20" width="65.75" y="681.83" x="371.62" />
        </mxCell>
        <mxCell id="llO0JlSiUA80strPoOcS-3" value="&lt;font style=&quot;font-size: 17px ; background-color: rgb(255 , 255 , 255)&quot;&gt;nginx&lt;/font&gt;" parent="1" vertex="1" style="shape=image;html=1;verticalAlign=top;verticalLabelPosition=bottom;labelBackgroundColor=#ffffff;imageAspect=0;aspect=fixed;image=https://cdn4.iconfinder.com/data/icons/logos-brands-5/24/nginx-128.png">
          <mxGeometry as="geometry" height="40" width="40" y="3112" x="249.64" />
        </mxCell>
        <mxCell id="llO0JlSiUA80strPoOcS-4" value="&lt;font style=&quot;font-size: 15px&quot;&gt;nginx&lt;/font&gt;" parent="1" vertex="1" style="shape=image;html=1;verticalAlign=top;verticalLabelPosition=bottom;labelBackgroundColor=#ffffff;imageAspect=0;aspect=fixed;image=https://cdn4.iconfinder.com/data/icons/logos-brands-5/24/nginx-128.png">
          <mxGeometry as="geometry" height="40" width="40" y="3192" x="249.64" />
        </mxCell>
        <mxCell id="llO0JlSiUA80strPoOcS-5" value="&lt;font style=&quot;font-size: 15px&quot;&gt;网关微服务&lt;/font&gt;" parent="1" vertex="1" style="outlineConnect=0;fontColor=#232F3E;gradientColor=none;strokeColor=none;dashed=0;verticalLabelPosition=bottom;verticalAlign=top;align=center;html=1;fontSize=12;fontStyle=0;aspect=fixed;pointerEvents=1;shape=mxgraph.aws4.nat_gateway;fillColor=#000000;">
          <mxGeometry as="geometry" height="78" width="78" y="3154" x="431.75" />
        </mxCell>
        <mxCell id="llO0JlSiUA80strPoOcS-11" value="" parent="1" vertex="1" style="outlineConnect=0;fontColor=#232F3E;gradientColor=none;strokeColor=none;dashed=0;verticalLabelPosition=bottom;verticalAlign=top;align=center;html=1;fontSize=12;fontStyle=0;aspect=fixed;pointerEvents=1;shape=mxgraph.aws4.traditional_server;fillColor=#333333;">
          <mxGeometry as="geometry" height="48" width="27.69" y="3353" x="577.91" />
        </mxCell>
        <mxCell id="llO0JlSiUA80strPoOcS-12" value="&lt;font style=&quot;font-size: 15px&quot;&gt;用户中心微服务&lt;/font&gt;" parent="1" vertex="1" style="outlineConnect=0;fontColor=#232F3E;gradientColor=none;strokeColor=none;dashed=0;verticalLabelPosition=bottom;verticalAlign=top;align=center;html=1;fontSize=12;fontStyle=0;aspect=fixed;pointerEvents=1;shape=mxgraph.aws4.traditional_server;fillColor=#333333;">
          <mxGeometry as="geometry" height="48" width="27.69" y="3353" x="619.91" />
        </mxCell>
        <mxCell id="llO0JlSiUA80strPoOcS-13" value="" parent="1" vertex="1" style="outlineConnect=0;fontColor=#232F3E;gradientColor=none;strokeColor=none;dashed=0;verticalLabelPosition=bottom;verticalAlign=top;align=center;html=1;fontSize=12;fontStyle=0;aspect=fixed;pointerEvents=1;shape=mxgraph.aws4.traditional_server;fillColor=#333333;">
          <mxGeometry as="geometry" height="48" width="27.69" y="3353" x="659.91" />
        </mxCell>
        <mxCell id="llO0JlSiUA80strPoOcS-17" value="&lt;font style=&quot;font-size: 15px&quot;&gt;Oracle数据层&lt;/font&gt;" parent="1" vertex="1" style="outlineConnect=0;dashed=0;verticalLabelPosition=bottom;verticalAlign=top;align=center;html=1;shape=mxgraph.aws3.oracle_db_instance;gradientColor=none;fillColor=#CCCCCC;">
          <mxGeometry as="geometry" height="78" width="78" y="3350" x="1015.75" />
        </mxCell>
        <mxCell id="llO0JlSiUA80strPoOcS-20" value="&lt;font style=&quot;font-size: 15px&quot;&gt;消息队列系统&lt;/font&gt;" parent="1" vertex="1" style="outlineConnect=0;gradientDirection=north;strokeColor=#d79b00;dashed=0;verticalLabelPosition=bottom;verticalAlign=top;align=center;html=1;fontSize=12;fontStyle=0;aspect=fixed;shape=mxgraph.aws4.resourceIcon;resIcon=mxgraph.aws4.mq;fillColor=#ffe6cc;gradientColor=#FF9999;">
          <mxGeometry as="geometry" height="65" width="65" y="3036" x="860" />
        </mxCell>
        <mxCell id="llO0JlSiUA80strPoOcS-22" value="&lt;font style=&quot;font-size: 15px&quot;&gt;局域网CDN&lt;/font&gt;" parent="1" vertex="1" style="aspect=fixed;html=1;points=[];align=center;image;fontSize=12;image=img/lib/mscae/Content_Delivery_Network.svg;fillColor=#E6E6E6;gradientColor=#E6E6E6;">
          <mxGeometry as="geometry" height="43" width="93.48" y="3384" x="350" />
        </mxCell>
        <mxCell id="llO0JlSiUA80strPoOcS-27" value="&lt;font style=&quot;font-size: 15px&quot;&gt;缓存系统&lt;/font&gt;" parent="1" vertex="1" style="outlineConnect=0;dashed=0;verticalLabelPosition=bottom;verticalAlign=top;align=center;html=1;shape=mxgraph.aws3.redis;fillColor=#2E73B8;gradientColor=none;">
          <mxGeometry as="geometry" height="78" width="78" y="3353" x="800.75" />
        </mxCell>
        <mxCell id="llO0JlSiUA80strPoOcS-29" value="" parent="1" vertex="1" style="html=1;dashed=0;whitespace=wrap;fillColor=#2875E2;strokeColor=#ffffff;points=[[0.005,0.63,0],[0.1,0.2,0],[0.9,0.2,0],[0.5,0,0],[0.995,0.63,0],[0.72,0.99,0],[0.5,1,0],[0.28,0.99,0]];shape=mxgraph.kubernetes.icon;prIcon=user">
          <mxGeometry as="geometry" height="79" width="80" y="3144.5" x="40" />
        </mxCell>
        <mxCell id="llO0JlSiUA80strPoOcS-30" value="" parent="1" style="endArrow=classic;html=1;exitX=0.995;exitY=0.63;exitDx=0;exitDy=0;exitPerimeter=0;" edge="1" source="llO0JlSiUA80strPoOcS-29">
          <mxGeometry as="geometry" height="50" width="50" relative="1">
            <mxPoint as="sourcePoint" y="3224" x="159.75" />
            <mxPoint as="targetPoint" y="3194" x="209.75" />
          </mxGeometry>
        </mxCell>
        <mxCell id="llO0JlSiUA80strPoOcS-31" value="" parent="1" style="endArrow=classic;html=1;exitX=0.995;exitY=0.63;exitDx=0;exitDy=0;exitPerimeter=0;" edge="1">
          <mxGeometry as="geometry" height="50" width="50" relative="1">
            <mxPoint as="sourcePoint" y="3192.27" x="336.67999999999995" />
            <mxPoint as="targetPoint" y="3192" x="426.83000000000004" />
          </mxGeometry>
        </mxCell>
        <mxCell id="llO0JlSiUA80strPoOcS-34" value="" parent="1" style="endArrow=classic;html=1;" edge="1">
          <mxGeometry as="geometry" height="50" width="50" relative="1">
            <mxPoint as="sourcePoint" y="3204" x="340" />
            <mxPoint as="targetPoint" y="3374" x="401.75" />
          </mxGeometry>
        </mxCell>
        <mxCell id="llO0JlSiUA80strPoOcS-37" value="&lt;font style=&quot;font-size: 15px&quot;&gt;访问静态资源&lt;/font&gt;" parent="1" vertex="1" style="text;html=1;strokeColor=none;fillColor=none;align=center;verticalAlign=middle;whiteSpace=wrap;rounded=0;dashed=1;">
          <mxGeometry as="geometry" height="20" width="100" y="3344" x="286.37" />
        </mxCell>
        <mxCell id="llO0JlSiUA80strPoOcS-41" value="" parent="1" style="endArrow=classic;html=1;" edge="1" source="llO0JlSiUA80strPoOcS-5">
          <mxGeometry as="geometry" height="50" width="50" relative="1">
            <mxPoint as="sourcePoint" y="3134" x="471.75" />
            <mxPoint as="targetPoint" y="3004" x="551.75" />
          </mxGeometry>
        </mxCell>
        <mxCell id="llO0JlSiUA80strPoOcS-43" value="&lt;font style=&quot;font-size: 15px&quot;&gt;缴费信息上传&lt;/font&gt;" parent="1" vertex="1" style="text;html=1;strokeColor=none;fillColor=none;align=center;verticalAlign=middle;whiteSpace=wrap;rounded=0;dashed=1;">
          <mxGeometry as="geometry" height="21" width="100" y="3065" x="421.75" />
        </mxCell>
        <mxCell id="llO0JlSiUA80strPoOcS-47" value="" parent="1" style="endArrow=classic;html=1;exitX=0;exitY=0.5;exitDx=0;exitDy=0;" edge="1" source="llO0JlSiUA80strPoOcS-46">
          <mxGeometry as="geometry" height="50" width="50" relative="1">
            <mxPoint as="sourcePoint" y="3344" x="551.75" />
            <mxPoint as="targetPoint" y="3264" x="500" />
          </mxGeometry>
        </mxCell>
        <mxCell id="llO0JlSiUA80strPoOcS-48" value="" parent="1" style="endArrow=classic;html=1;" edge="1">
          <mxGeometry as="geometry" height="50" width="50" relative="1">
            <mxPoint as="sourcePoint" y="3394" x="1010" />
            <mxPoint as="targetPoint" y="3394" x="882" />
          </mxGeometry>
        </mxCell>
        <mxCell id="llO0JlSiUA80strPoOcS-49" value="" parent="1" style="endArrow=classic;html=1;" edge="1">
          <mxGeometry as="geometry" height="50" width="50" relative="1">
            <mxPoint as="sourcePoint" y="3391.58" x="788.74" />
            <mxPoint as="targetPoint" y="3391.58" x="708.74" />
          </mxGeometry>
        </mxCell>
        <mxCell id="llO0JlSiUA80strPoOcS-50" value="" parent="1" style="endArrow=classic;startArrow=classic;html=1;dashed=1;" edge="1">
          <mxGeometry as="geometry" height="50" width="50" relative="1">
            <mxPoint as="sourcePoint" y="3324" x="631.75" />
            <mxPoint as="targetPoint" y="3054" x="631.75" />
          </mxGeometry>
        </mxCell>
        <mxCell id="llO0JlSiUA80strPoOcS-51" value="&lt;font style=&quot;font-size: 15px&quot;&gt;Dubbo调用&lt;/font&gt;" parent="1" vertex="1" style="text;html=1;strokeColor=none;fillColor=none;align=center;verticalAlign=middle;whiteSpace=wrap;rounded=0;dashed=1;">
          <mxGeometry as="geometry" height="20" width="40" y="3172" x="647.59" />
        </mxCell>
        <mxCell id="llO0JlSiUA80strPoOcS-55" value="&lt;font style=&quot;font-size: 16px&quot;&gt;Zookeeper集群&lt;/font&gt;" parent="1" vertex="1" style="rounded=0;whiteSpace=wrap;html=1;">
          <mxGeometry as="geometry" height="60" width="115" y="3163" x="708.75" />
        </mxCell>
        <mxCell id="llO0JlSiUA80strPoOcS-66" value="" parent="1" style="endArrow=classic;html=1;dashed=1;entryX=0.385;entryY=-0.142;entryDx=0;entryDy=0;entryPerimeter=0;" edge="1" target="llO0JlSiUA80strPoOcS-55">
          <mxGeometry as="geometry" height="50" width="50" relative="1">
            <mxPoint as="sourcePoint" y="3054.5" x="640" />
            <mxPoint as="targetPoint" y="3144.5" x="840" />
          </mxGeometry>
        </mxCell>
        <mxCell id="llO0JlSiUA80strPoOcS-70" value="&lt;font style=&quot;font-size: 15px&quot;&gt;注册&lt;/font&gt;" parent="1" vertex="1" style="text;html=1;strokeColor=none;fillColor=none;align=center;verticalAlign=middle;whiteSpace=wrap;rounded=0;">
          <mxGeometry as="geometry" height="20" width="40" y="3092" x="708.75" />
        </mxCell>
        <mxCell id="llO0JlSiUA80strPoOcS-71" value="" parent="1" style="endArrow=classic;html=1;dashed=1;entryX=0.446;entryY=1.142;entryDx=0;entryDy=0;entryPerimeter=0;" edge="1" target="llO0JlSiUA80strPoOcS-55">
          <mxGeometry as="geometry" height="50" width="50" relative="1">
            <mxPoint as="sourcePoint" y="3324" x="651.75" />
            <mxPoint as="targetPoint" y="3214" x="841.75" />
          </mxGeometry>
        </mxCell>
        <mxCell id="llO0JlSiUA80strPoOcS-74" value="&lt;font style=&quot;font-size: 15px&quot;&gt;注册&lt;/font&gt;" parent="1" vertex="1" style="text;html=1;strokeColor=none;fillColor=none;align=center;verticalAlign=middle;whiteSpace=wrap;rounded=0;">
          <mxGeometry as="geometry" height="20" width="40" y="3265" x="724" />
        </mxCell>
        <mxCell id="llO0JlSiUA80strPoOcS-75" value="" parent="1" vertex="1" style="rounded=0;whiteSpace=wrap;html=1;fillColor=#E6E6E6;gradientColor=#FF9999;">
          <mxGeometry as="geometry" height="60" width="120" y="2850" x="1534" />
        </mxCell>
        <mxCell id="llO0JlSiUA80strPoOcS-78" value="&lt;font style=&quot;font-size: 16px&quot;&gt;前端&lt;/font&gt;" parent="1" vertex="1" style="text;html=1;strokeColor=none;fillColor=none;align=center;verticalAlign=middle;whiteSpace=wrap;rounded=0;">
          <mxGeometry as="geometry" height="20" width="40" y="3234" x="60" />
        </mxCell>
        <mxCell id="llO0JlSiUA80strPoOcS-79" value="&lt;font style=&quot;font-size: 15px&quot;&gt;Log&lt;/font&gt;" parent="1" vertex="1" style="html=1;strokeColor=none;labelPosition=center;verticalLabelPosition=middle;verticalAlign=top;align=center;fontSize=12;outlineConnect=0;spacingTop=-6;fontColor=#FFFFFF;shape=mxgraph.sitemap.log;fillColor=#CCCCCC;">
          <mxGeometry as="geometry" height="70" width="120" y="2936" x="994.75" />
        </mxCell>
        <mxCell id="llO0JlSiUA80strPoOcS-81" value="&lt;font style=&quot;font-size: 16px&quot;&gt;日志系统&lt;/font&gt;" parent="1" vertex="1" style="text;html=1;strokeColor=none;fillColor=none;align=center;verticalAlign=middle;whiteSpace=wrap;rounded=0;">
          <mxGeometry as="geometry" height="20" width="70" y="3016" x="1023.75" />
        </mxCell>
        <mxCell id="llO0JlSiUA80strPoOcS-84" value="" parent="1" style="endArrow=classic;html=1;" edge="1">
          <mxGeometry as="geometry" height="50" width="50" relative="1">
            <mxPoint as="sourcePoint" y="2974" x="710" />
            <mxPoint as="targetPoint" y="2974" x="980" />
          </mxGeometry>
        </mxCell>
        <mxCell id="llO0JlSiUA80strPoOcS-86" value="2、接口请求参数封装成json字符串" parent="1" vertex="1" style="rounded=0;whiteSpace=wrap;html=1;">
          <mxGeometry as="geometry" height="40" width="120" y="2730" x="240" />
        </mxCell>
        <mxCell id="llO0JlSiUA80strPoOcS-87" value="3、使用AES秘钥对请求参数整体加密" parent="1" vertex="1" style="rounded=0;whiteSpace=wrap;html=1;">
          <mxGeometry as="geometry" height="40" width="120" y="2680" x="440.75" />
        </mxCell>
        <mxCell id="llO0JlSiUA80strPoOcS-88" value="6、使用&lt;font color=&quot;#ff3333&quot;&gt;RAS公钥&lt;/font&gt;对AES米秘钥进行加密" parent="1" vertex="1" style="rounded=0;whiteSpace=wrap;html=1;">
          <mxGeometry as="geometry" height="40" width="120" y="2780" x="444" />
        </mxCell>
        <mxCell id="llO0JlSiUA80strPoOcS-89" value="4、请求参数content" parent="1" vertex="1" style="rounded=0;whiteSpace=wrap;html=1;">
          <mxGeometry as="geometry" height="40" width="120" y="2680" x="638.75" />
        </mxCell>
        <mxCell id="llO0JlSiUA80strPoOcS-90" value="7、key" parent="1" vertex="1" style="rounded=0;whiteSpace=wrap;html=1;">
          <mxGeometry as="geometry" height="40" width="120" y="2780" x="640.13" />
        </mxCell>
        <mxCell id="llO0JlSiUA80strPoOcS-91" value="5、请求接口从后端获取RSA公钥" parent="1" vertex="1" style="rounded=0;whiteSpace=wrap;html=1;">
          <mxGeometry as="geometry" height="40" width="120" y="2820" x="241.38" />
        </mxCell>
        <mxCell id="llO0JlSiUA80strPoOcS-92" value="" parent="1" style="endArrow=classic;html=1;exitX=1;exitY=0.5;exitDx=0;exitDy=0;" edge="1" source="dd-nPzwq3zdHLR0h9W44-3">
          <mxGeometry as="geometry" height="50" width="50" relative="1">
            <mxPoint as="sourcePoint" y="2710" x="360" />
            <mxPoint as="targetPoint" y="2700" x="440" />
          </mxGeometry>
        </mxCell>
        <mxCell id="llO0JlSiUA80strPoOcS-93" value="" parent="1" style="endArrow=classic;html=1;exitX=1;exitY=0.5;exitDx=0;exitDy=0;" edge="1" source="llO0JlSiUA80strPoOcS-86">
          <mxGeometry as="geometry" height="50" width="50" relative="1">
            <mxPoint as="sourcePoint" y="2690" x="365.59000000000003" />
            <mxPoint as="targetPoint" y="2700" x="440" />
          </mxGeometry>
        </mxCell>
        <mxCell id="llO0JlSiUA80strPoOcS-94" value="" parent="1" style="endArrow=classic;html=1;exitX=1;exitY=0.5;exitDx=0;exitDy=0;entryX=0;entryY=0.5;entryDx=0;entryDy=0;" edge="1" target="llO0JlSiUA80strPoOcS-89">
          <mxGeometry as="geometry" height="50" width="50" relative="1">
            <mxPoint as="sourcePoint" y="2700" x="560.75" />
            <mxPoint as="targetPoint" y="2740" x="640.75" />
          </mxGeometry>
        </mxCell>
        <mxCell id="llO0JlSiUA80strPoOcS-95" value="" parent="1" style="endArrow=classic;html=1;exitX=1;exitY=0.5;exitDx=0;exitDy=0;entryX=0;entryY=0.5;entryDx=0;entryDy=0;" edge="1" target="llO0JlSiUA80strPoOcS-88">
          <mxGeometry as="geometry" height="50" width="50" relative="1">
            <mxPoint as="sourcePoint" y="2840" x="362.13" />
            <mxPoint as="targetPoint" y="2790" x="442.13" />
          </mxGeometry>
        </mxCell>
        <mxCell id="llO0JlSiUA80strPoOcS-96" value="" parent="1" style="endArrow=classic;html=1;exitX=1;exitY=0.5;exitDx=0;exitDy=0;entryX=0;entryY=0.5;entryDx=0;entryDy=0;" edge="1">
          <mxGeometry as="geometry" height="50" width="50" relative="1">
            <mxPoint as="sourcePoint" y="2800" x="564" />
            <mxPoint as="targetPoint" y="2800" x="642" />
          </mxGeometry>
        </mxCell>
        <mxCell id="llO0JlSiUA80strPoOcS-99" value="&lt;font color=&quot;#ff6666&quot;&gt;传递给后端请求参数&lt;/font&gt;" parent="1" vertex="1" style="text;html=1;strokeColor=none;fillColor=none;align=center;verticalAlign=middle;whiteSpace=wrap;rounded=0;dashed=1;">
          <mxGeometry as="geometry" height="20" width="130" y="2840" x="640" />
        </mxCell>
        <mxCell id="llO0JlSiUA80strPoOcS-100" value="" parent="1" vertex="1" style="rounded=0;whiteSpace=wrap;html=1;dashed=1;">
          <mxGeometry as="geometry" height="116" width="150" y="2920" x="558.75" />
        </mxCell>
        <mxCell id="llO0JlSiUA80strPoOcS-101" value="" parent="1" vertex="1" style="outlineConnect=0;fontColor=#232F3E;gradientColor=none;strokeColor=none;dashed=0;verticalLabelPosition=bottom;verticalAlign=top;align=center;html=1;fontSize=12;fontStyle=0;aspect=fixed;pointerEvents=1;shape=mxgraph.aws4.traditional_server;fillColor=#333333;">
          <mxGeometry as="geometry" height="48" width="27.69" y="2940" x="577.91" />
        </mxCell>
        <mxCell id="llO0JlSiUA80strPoOcS-102" value="&lt;font style=&quot;font-size: 15px&quot;&gt;处方共享微服务集群&lt;/font&gt;" parent="1" vertex="1" style="outlineConnect=0;fontColor=#232F3E;gradientColor=none;strokeColor=none;dashed=0;verticalLabelPosition=bottom;verticalAlign=top;align=center;html=1;fontSize=12;fontStyle=0;aspect=fixed;pointerEvents=1;shape=mxgraph.aws4.traditional_server;fillColor=#333333;">
          <mxGeometry as="geometry" height="48" width="27.69" y="2940" x="619.9099999999998" />
        </mxCell>
        <mxCell id="llO0JlSiUA80strPoOcS-103" value="" parent="1" vertex="1" style="outlineConnect=0;fontColor=#232F3E;gradientColor=none;strokeColor=none;dashed=0;verticalLabelPosition=bottom;verticalAlign=top;align=center;html=1;fontSize=12;fontStyle=0;aspect=fixed;pointerEvents=1;shape=mxgraph.aws4.traditional_server;fillColor=#333333;">
          <mxGeometry as="geometry" height="48" width="27.69" y="2940" x="659.9099999999998" />
        </mxCell>
        <mxCell id="llO0JlSiUA80strPoOcS-107" value="&lt;font style=&quot;font-size: 15px&quot;&gt;处方写入&lt;/font&gt;" parent="1" vertex="1" style="text;html=1;strokeColor=none;fillColor=none;align=center;verticalAlign=middle;whiteSpace=wrap;rounded=0;dashed=1;">
          <mxGeometry as="geometry" height="21" width="100" y="3043" x="421.75" />
        </mxCell>
        <mxCell id="llO0JlSiUA80strPoOcS-110" value="" parent="1" style="endArrow=classic;html=1;" edge="1">
          <mxGeometry as="geometry" height="50" width="50" relative="1">
            <mxPoint as="sourcePoint" y="3044" x="570" />
            <mxPoint as="targetPoint" y="3174" x="510" />
          </mxGeometry>
        </mxCell>
        <mxCell id="llO0JlSiUA80strPoOcS-113" value="&lt;font style=&quot;font-size: 15px&quot;&gt;处方&lt;br&gt;查询&lt;/font&gt;" parent="1" vertex="1" style="text;html=1;strokeColor=none;fillColor=none;align=center;verticalAlign=middle;whiteSpace=wrap;rounded=0;dashed=1;">
          <mxGeometry as="geometry" height="21" width="100" y="3104" x="525" />
        </mxCell>
        <mxCell id="llO0JlSiUA80strPoOcS-119" value="" parent="1" style="endArrow=classic;html=1;exitX=1.008;exitY=0.638;exitDx=0;exitDy=0;exitPerimeter=0;" edge="1" source="llO0JlSiUA80strPoOcS-100">
          <mxGeometry as="geometry" height="50" width="50" relative="1">
            <mxPoint as="sourcePoint" y="3164" x="1080" />
            <mxPoint as="targetPoint" y="3054" x="850" />
          </mxGeometry>
        </mxCell>
        <mxCell id="llO0JlSiUA80strPoOcS-120" value="" parent="1" vertex="1" style="rounded=0;whiteSpace=wrap;html=1;dashed=1;">
          <mxGeometry as="geometry" height="116" width="150" y="3135" x="964.75" />
        </mxCell>
        <mxCell id="llO0JlSiUA80strPoOcS-121" value="" parent="1" vertex="1" style="outlineConnect=0;fontColor=#232F3E;gradientColor=none;strokeColor=none;dashed=0;verticalLabelPosition=bottom;verticalAlign=top;align=center;html=1;fontSize=12;fontStyle=0;aspect=fixed;pointerEvents=1;shape=mxgraph.aws4.traditional_server;fillColor=#333333;">
          <mxGeometry as="geometry" height="48" width="27.69" y="3155" x="983.91" />
        </mxCell>
        <mxCell id="llO0JlSiUA80strPoOcS-122" value="&lt;font style=&quot;font-size: 15px&quot;&gt;处方消费者集群&lt;/font&gt;" parent="1" vertex="1" style="outlineConnect=0;fontColor=#232F3E;gradientColor=none;strokeColor=none;dashed=0;verticalLabelPosition=bottom;verticalAlign=top;align=center;html=1;fontSize=12;fontStyle=0;aspect=fixed;pointerEvents=1;shape=mxgraph.aws4.traditional_server;fillColor=#333333;">
          <mxGeometry as="geometry" height="48" width="27.69" y="3155" x="1025.9099999999998" />
        </mxCell>
        <mxCell id="llO0JlSiUA80strPoOcS-123" value="" parent="1" vertex="1" style="outlineConnect=0;fontColor=#232F3E;gradientColor=none;strokeColor=none;dashed=0;verticalLabelPosition=bottom;verticalAlign=top;align=center;html=1;fontSize=12;fontStyle=0;aspect=fixed;pointerEvents=1;shape=mxgraph.aws4.traditional_server;fillColor=#333333;">
          <mxGeometry as="geometry" height="48" width="27.69" y="3155" x="1065.9099999999998" />
        </mxCell>
        <mxCell id="llO0JlSiUA80strPoOcS-124" value="" parent="1" style="endArrow=classic;html=1;" edge="1">
          <mxGeometry as="geometry" height="50" width="50" relative="1">
            <mxPoint as="sourcePoint" y="3258" x="1050" />
            <mxPoint as="targetPoint" y="3344" x="1050" />
          </mxGeometry>
        </mxCell>
        <mxCell id="llO0JlSiUA80strPoOcS-125" value="" parent="1" style="endArrow=classic;html=1;entryX=0.387;entryY=-0.072;entryDx=0;entryDy=0;entryPerimeter=0;" edge="1" target="llO0JlSiUA80strPoOcS-120">
          <mxGeometry as="geometry" height="50" width="50" relative="1">
            <mxPoint as="sourcePoint" y="3074" x="930" />
            <mxPoint as="targetPoint" y="3163" x="940" />
          </mxGeometry>
        </mxCell>
        <mxCell id="llO0JlSiUA80strPoOcS-126" value="&lt;p class=&quot;MsoNormal&quot;&gt;&lt;font face=&quot;等线&quot;&gt;O&lt;font style=&quot;font-size: 12px&quot;&gt;racle数据库&lt;/font&gt;&lt;/font&gt;&lt;/p&gt;" parent="1" vertex="1" style="rounded=0;whiteSpace=wrap;html=1;fillColor=#e1d5e7;strokeColor=#9673a6;">
          <mxGeometry as="geometry" height="20" width="80" y="581.33" x="245.75" />
        </mxCell>
        <mxCell id="llO0JlSiUA80strPoOcS-127" value="大数据挖掘与分析" parent="1" vertex="1" style="rounded=0;whiteSpace=wrap;html=1;fillColor=#e1d5e7;strokeColor=#9673a6;">
          <mxGeometry as="geometry" height="20" width="113.25" y="581.33" x="400.75" />
        </mxCell>
        <mxCell id="llO0JlSiUA80strPoOcS-130" value="" parent="1" style="endArrow=classic;html=1;" edge="1">
          <mxGeometry as="geometry" height="50" width="50" relative="1">
            <mxPoint as="sourcePoint" y="509.99999999999994" x="362.88000000000005" />
            <mxPoint as="targetPoint" y="545.8333333333333" x="362.88000000000005" />
          </mxGeometry>
        </mxCell>
        <mxCell id="llO0JlSiUA80strPoOcS-135" value="基础支撑" parent="1" vertex="1" style="text;html=1;strokeColor=none;fillColor=none;align=center;verticalAlign=middle;whiteSpace=wrap;rounded=0;dashed=1;">
          <mxGeometry as="geometry" height="20" width="73" y="454" x="317" />
        </mxCell>
        <mxCell id="llO0JlSiUA80strPoOcS-137" value="分布式缓存" parent="1" vertex="1" style="rounded=0;whiteSpace=wrap;html=1;fillColor=#FFFFFF;gradientColor=#FFFFFF;">
          <mxGeometry as="geometry" height="20" width="82" y="480" x="262.75" />
        </mxCell>
        <mxCell id="llO0JlSiUA80strPoOcS-138" value="消息队列" parent="1" vertex="1" style="rounded=0;whiteSpace=wrap;html=1;fillColor=#FFFFFF;gradientColor=#FFFFFF;">
          <mxGeometry as="geometry" height="20" width="82" y="480" x="162.88" />
        </mxCell>
        <mxCell id="llO0JlSiUA80strPoOcS-139" value="调用链追踪" parent="1" vertex="1" style="rounded=0;whiteSpace=wrap;html=1;fillColor=#FFFFFF;gradientColor=#FFFFFF;">
          <mxGeometry as="geometry" height="20" width="82" y="480" x="455.13" />
        </mxCell>
        <mxCell id="llO0JlSiUA80strPoOcS-140" value="定时任务" parent="1" vertex="1" style="rounded=0;whiteSpace=wrap;html=1;fillColor=#FFFFFF;gradientColor=#FFFFFF;">
          <mxGeometry as="geometry" height="20" width="82" y="480" x="362.88" />
        </mxCell>
      </root>
    </mxGraphModel>
  </diagram>
</mxfile>
